<?xml version="1.0" encoding="UTF-8"?>
<svg id="Calque_1" data-name="Calque 1" xmlns="http://www.w3.org/2000/svg" version="1.1" viewBox="0 0 84.47 84.47">
  <defs>
    <style>
      .cls-1 {
        fill: #1d1d1b;
        stroke-width: 0px;
      }

      .cls-2 {
        fill: none;
        stroke: #f7aa21;
        stroke-miterlimit: 10;
      }
    </style>
  </defs>
  <path class="cls-2" d="M38.32,62.31"/>
  <g>
    <path class="cls-1" d="M41.99,27.63c-.61,0-1.11-.5-1.11-1.11v-8.44c0-.61.5-1.11,1.11-1.11s1.11.5,1.11,1.11v8.44c0,.61-.5,1.11-1.11,1.11Z"/>
    <path class="cls-1" d="M47.77,28.83c-.15,0-.3-.03-.44-.09-.56-.24-.82-.9-.57-1.46l2.21-5.09c.24-.56.9-.82,1.46-.57.56.24.82.9.57,1.46l-2.21,5.09c-.18.42-.59.67-1.02.67Z"/>
    <path class="cls-1" d="M28.68,36.35c-.15,0-.3-.03-.44-.09l-5.09-2.21c-.56-.24-.82-.9-.57-1.46.24-.56.9-.82,1.46-.57l5.09,2.21c.56.24.82.9.57,1.46-.18.42-.59.67-1.02.67Z"/>
    <path class="cls-1" d="M55.48,36.81c-.44,0-.86-.27-1.03-.7-.22-.57.06-1.21.62-1.43l5.16-2.03c.57-.22,1.21.06,1.43.62.22.57-.06,1.21-.62,1.43l-5.16,2.03c-.13.05-.27.08-.41.08Z"/>
    <path class="cls-1" d="M36.67,28.64c-.44,0-.86-.27-1.03-.7l-2.03-5.16c-.22-.57.06-1.21.62-1.43.57-.22,1.21.06,1.43.62l2.03,5.16c.22.57-.06,1.21-.62,1.43-.13.05-.27.08-.41.08Z"/>
    <path class="cls-1" d="M52.24,31.5c-.28,0-.57-.11-.78-.32-.43-.43-.43-1.13,0-1.56l6.47-6.47c.43-.43,1.13-.43,1.56,0,.43.43.43,1.13,0,1.56l-6.47,6.47c-.22.22-.5.32-.78.32Z"/>
    <path class="cls-1" d="M31.35,31.5c-.28,0-.57-.11-.78-.32l-6.47-6.47c-.43-.43-.43-1.13,0-1.56.43-.43,1.13-.43,1.56,0l6.47,6.47c.43.43.43,1.13,0,1.56-.22.22-.5.32-.78.32Z"/>
  </g>
  <path class="cls-1" d="M42.24,5.88C22.19,5.88,5.88,22.19,5.88,42.24c0,5.11,1.04,10.06,3.1,14.71,1.91,4.32,4.61,8.18,8.03,11.47,6.81,6.56,15.77,10.18,25.23,10.18s18.47-3.64,25.29-10.24c0,0,0,0,0,0,3.35-3.25,6.01-7.04,7.91-11.28,2.1-4.68,3.16-9.68,3.16-14.84,0-20.05-16.31-36.36-36.36-36.36ZM71.71,55c-.09.04-.18.08-.27.12-.05.02-.1.04-.15.06-.11.04-.21.08-.31.12-.03.01-.06.03-.1.04-.14.05-.27.09-.4.13-.03,0-.07.02-.1.03-.1.03-.2.05-.3.08-.05.01-.1.02-.15.03-.08.02-.16.03-.24.05-.05,0-.11.02-.16.02-.08.01-.15.02-.23.03-.05,0-.11.01-.16.02-.07,0-.14.01-.22.02-.06,0-.11,0-.17,0-.07,0-.14,0-.21,0-.06,0-.11,0-.17,0-.07,0-.14,0-.21-.01-.06,0-.11,0-.17-.02-.07,0-.14-.02-.21-.03-.05,0-.11-.02-.16-.03-.07-.01-.14-.03-.21-.04-.05-.01-.11-.02-.16-.03-.07-.02-.15-.04-.22-.06-.05-.01-.1-.03-.15-.04-.08-.02-.16-.05-.25-.08-.04-.01-.09-.03-.13-.04-.13-.05-.25-.09-.38-.15,0,0-.02,0-.02-.01-.71-.29-1.42-.7-2.15-1.15-.25-.15-.49-.31-.74-.46-.99-.62-2-1.25-3.1-1.76,0,0-.01,0-.02,0-.08-.04-.16-.07-.24-.1-.03-.01-.07-.03-.1-.04-.2-.09-.41-.17-.63-.24-.02,0-.04-.02-.07-.02-.35-.12-.71-.23-1.09-.32-.82-.21-1.59-.31-2.33-.33,0,0,0,0,0,0-.1,0-.21,0-.31,0-.02,0-.03,0-.05,0-.03,0-.06,0-.09,0-2.95.06-5.22,1.49-7.28,2.78-1.98,1.24-3.68,2.3-5.86,2.2-1.96-.08-3.62-1.12-5.39-2.22-.09-.06-.19-.12-.28-.18-2.5-1.55-5.33-3.2-9.3-2.34-.1.02-.2.04-.3.07-.77.17-1.49.43-2.17.74-1.14.51-2.17,1.16-3.19,1.8-.14.09-.28.17-.41.26-.69.43-1.35.83-2.01,1.15-.26.13-.53.24-.79.33-.01,0-.02,0-.03.01-.12.05-.25.09-.37.13-.04.01-.08.02-.11.03-.08.03-.17.05-.25.07-.05.01-.09.02-.14.03-.08.02-.15.04-.23.05-.05,0-.1.02-.15.03-.07.01-.15.02-.22.03-.05,0-.1.01-.15.02-.07,0-.14.01-.21.02-.05,0-.1,0-.16,0-.07,0-.14,0-.21,0-.05,0-.11,0-.16,0-.07,0-.14,0-.21,0-.05,0-.11,0-.16-.01-.07,0-.14-.01-.22-.02-.05,0-.11-.01-.16-.02-.07-.01-.15-.02-.22-.04-.05,0-.1-.02-.16-.03-.08-.02-.16-.04-.23-.06-.05-.01-.1-.02-.15-.04-.09-.02-.18-.05-.26-.08-.04-.01-.08-.02-.12-.04-.13-.04-.26-.09-.39-.14-.02,0-.04-.02-.06-.02-.11-.04-.23-.09-.34-.14-.05-.02-.1-.05-.15-.07-.09-.04-.17-.08-.26-.12-.06-.03-.11-.06-.17-.09-.06-.03-.12-.06-.19-.1-.79-1.89-1.4-3.84-1.82-5.84,2.43,1.29,5.52,2.12,9.04.78,1.44-.53,2.72-1.33,3.96-2.1,1.41-.88,2.74-1.72,4.13-2.03.01,0,.03,0,.04,0,2.65-.65,4.5.5,6.84,1.96,2.03,1.26,4.33,2.7,7.32,2.82,3.41.17,5.92-1.41,8.15-2.81,2.37-1.49,4.25-2.66,6.98-1.96.01,0,.03,0,.04,0,1.36.32,2.67,1.14,4.06,2.01,1.1.69,2.24,1.4,3.49,1.92,3.59,1.52,6.73.8,9.32-.5-.42,2-1.04,3.95-1.84,5.84-.06.03-.13.06-.19.09-.06.03-.12.06-.17.08ZM42.24,9.86c17.85,0,32.37,14.52,32.37,32.37,0,.58-.02,1.17-.05,1.75-.13.05-.25.12-.37.2-3.25,2.21-5.58,2.68-8.06,1.63,0,0-.02,0-.02-.01-.94-.39-1.89-.98-2.9-1.61-1.59-1-3.24-2.03-5.24-2.51-1.53-.39-2.89-.41-4.13-.21-.35-6.18-5.46-11.08-11.73-11.08s-11.35,4.88-11.73,11.04c-1.1-.14-2.29-.09-3.6.23-2.05.46-3.73,1.52-5.36,2.54-1.11.7-2.16,1.36-3.21,1.74-.01,0-.02,0-.03.01-2.43.93-4.77.36-7.85-1.9-.14-.1-.29-.18-.44-.24-.02-.52-.04-1.05-.04-1.57,0-17.85,14.52-32.37,32.37-32.37ZM42.24,74.61c-7.43,0-14.51-2.5-20.23-7.1.02-.01.04-.02.06-.03.23-.13.45-.27.67-.4.06-.04.12-.07.18-.11.21-.13.43-.26.64-.4,1.23-.77,2.41-1.51,3.61-1.89.17-.05.35-.1.52-.14.01,0,.03,0,.04,0,2.65-.65,4.5.5,6.84,1.96,2.03,1.26,4.33,2.7,7.32,2.82.16,0,.33.01.49.01.02,0,.05,0,.07,0,.1,0,.2,0,.3,0,.1,0,.19,0,.29-.01.11,0,.22-.02.33-.03.08,0,.16-.02.24-.03.12-.01.23-.03.34-.05.07-.01.14-.02.21-.03.12-.02.24-.05.35-.07.06-.01.12-.03.18-.04.12-.03.24-.06.36-.09.05-.01.1-.03.16-.04.12-.04.25-.07.37-.11.05-.01.09-.03.14-.05.12-.04.25-.09.37-.13.04-.01.08-.03.12-.05.12-.05.25-.1.37-.15.03-.01.07-.03.1-.04.12-.05.25-.11.37-.17.03-.01.06-.03.09-.04.12-.06.25-.12.37-.18.03-.01.05-.03.08-.04.12-.06.25-.13.37-.19.02-.01.05-.03.07-.04.12-.07.25-.14.37-.21.02-.01.04-.02.06-.03.12-.07.25-.14.37-.22.02,0,.03-.02.05-.03.12-.07.25-.15.37-.22,0,0,.01,0,.02-.01.27-.16.53-.33.79-.49.15-.09.29-.18.44-.27,2.17-1.35,3.98-2.34,6.54-1.68.01,0,.03,0,.04,0,.85.2,1.68.6,2.52,1.08.5.29,1.01.61,1.53.93.2.13.41.26.61.38.05.03.09.06.14.08.21.13.42.26.63.38.02.01.05.03.07.04-5.74,4.64-12.85,7.17-20.32,7.17ZM65.66,64.59s-.05-.02-.07-.03c-.17-.08-.34-.17-.51-.26,0,0-.02,0-.03-.01-.18-.1-.36-.2-.54-.31-.04-.02-.07-.04-.11-.07-.17-.1-.35-.21-.52-.32-.05-.03-.09-.06-.14-.09-.17-.11-.35-.21-.52-.32-.11-.07-.22-.14-.33-.21-1.49-.93-3.05-1.86-4.91-2.3-4.38-1.12-7.4.77-10.07,2.44-.59.37-1.16.73-1.73,1.04-1.32.73-2.61,1.23-4.13,1.16-1.96-.08-3.62-1.12-5.39-2.22-.11-.07-.22-.14-.33-.21-.03-.02-.06-.04-.09-.05-.12-.07-.24-.15-.36-.22-.02,0-.03-.02-.05-.03-.11-.07-.23-.14-.34-.2-.02-.01-.04-.02-.05-.03-.12-.07-.25-.14-.37-.22-.02-.01-.04-.03-.07-.04-.26-.15-.52-.29-.78-.42-.02-.01-.04-.02-.07-.03-.13-.07-.27-.13-.4-.2-.01,0-.02-.01-.04-.02-.13-.06-.26-.12-.39-.18-.02,0-.03-.01-.05-.02-.14-.06-.28-.12-.42-.17-.02,0-.04-.02-.07-.02-.29-.11-.58-.21-.88-.3-.02,0-.05-.01-.07-.02-.15-.04-.3-.08-.46-.12-.01,0-.02,0-.04,0-.15-.03-.3-.06-.45-.09-.02,0-.04,0-.06-.01-.16-.03-.31-.05-.47-.07-.03,0-.05,0-.08,0-.16-.02-.32-.03-.48-.04,0,0-.01,0-.02,0-.17,0-.33-.01-.5-.01-.02,0-.03,0-.05,0-.02,0-.03,0-.05,0-.17,0-.34,0-.52.02-.02,0-.04,0-.06,0-.16.01-.33.03-.5.05-.03,0-.06,0-.09.01-.18.02-.36.05-.54.08-.04,0-.08.01-.12.02-.18.03-.37.07-.56.12,0,0,0,0-.01,0-2.05.46-3.73,1.52-5.36,2.54-.17.11-.35.22-.52.32-.07.04-.14.09-.21.13-.05.03-.11.07-.16.1-.08.05-.16.1-.24.15-.04.03-.09.05-.13.08-.12.07-.24.14-.36.21-.02.01-.05.03-.07.04-.1.05-.19.11-.29.16-.04.02-.08.04-.12.06-.08.04-.16.08-.25.12-.04.02-.08.04-.13.06-.02.01-.05.02-.07.03-1.47-1.53-2.78-3.19-3.91-4.96.02,0,.04,0,.07,0,.15.01.31.03.46.03.02,0,.05,0,.07,0,.14,0,.27,0,.41,0,.03,0,.06,0,.09,0,.06,0,.12,0,.17,0,.12,0,.24,0,.37-.02.06,0,.12,0,.18-.01.14-.01.28-.03.42-.04.04,0,.07,0,.11-.01.17-.02.35-.05.52-.09.05,0,.09-.02.14-.03.13-.03.26-.06.39-.09.06-.01.12-.03.17-.05.13-.03.25-.07.38-.11.05-.02.1-.03.16-.05.17-.06.35-.12.52-.18.28-.1.56-.22.83-.34.94-.42,1.82-.94,2.66-1.47.16-.1.31-.19.47-.29,1.41-.88,2.74-1.72,4.13-2.03.01,0,.03,0,.04,0,2.65-.65,4.5.5,6.84,1.96,2.03,1.26,4.33,2.7,7.32,2.82,3.41.17,5.92-1.41,8.15-2.81,2.37-1.49,4.25-2.66,6.98-1.96.01,0,.03,0,.04,0,1.36.32,2.67,1.14,4.06,2.01,1.1.69,2.24,1.4,3.49,1.92.12.05.24.09.36.14.08.03.17.07.25.1.09.03.18.06.27.09.11.04.22.08.33.11.09.03.17.04.26.07.12.03.24.07.35.09.08.02.17.03.25.05.12.02.24.05.36.07.09.01.17.02.26.03.12.02.24.04.36.05.09,0,.17.01.26.02.12,0,.24.02.36.02.09,0,.18,0,.27,0,.12,0,.24,0,.35,0,.09,0,.18-.01.28-.02.12,0,.23-.01.35-.02,0,0,.01,0,.02,0-1.12,1.75-2.41,3.4-3.87,4.92Z"/>
</svg>